<?xml version="1.0" encoding="UTF-8" standalone="no"?>
<svg
   xmlns:dc="http://purl.org/dc/elements/1.1/"
   xmlns:cc="http://creativecommons.org/ns#"
   xmlns:rdf="http://www.w3.org/1999/02/22-rdf-syntax-ns#"
   xmlns:svg="http://www.w3.org/2000/svg"
   xmlns="http://www.w3.org/2000/svg"
   xmlns:sodipodi="http://sodipodi.sourceforge.net/DTD/sodipodi-0.dtd"
   xmlns:inkscape="http://www.inkscape.org/namespaces/inkscape"
   inkscape:version="1.0 (4035a4f, 2020-05-01)"
   sodipodi:docname="GlenstackLogoSimple.svg"
   id="svg2073"
   version="1.1"
   viewBox="0 0 1000 1000"
   height="1000mm"
   width="1000mm">
  <defs
     id="defs2067" />
  <sodipodi:namedview
     inkscape:window-maximized="0"
     inkscape:window-y="23"
     inkscape:window-x="0"
     inkscape:window-height="943"
     inkscape:window-width="1252"
     showgrid="false"
     inkscape:document-rotation="0"
     inkscape:current-layer="layer1"
     inkscape:document-units="mm"
     inkscape:cy="1489.7888"
     inkscape:cx="1845.3688"
     inkscape:zoom="0.13224794"
     inkscape:pageshadow="2"
     inkscape:pageopacity="0.0"
     borderopacity="1.0"
     bordercolor="#666666"
     pagecolor="#ffffff"
     id="base" />
  <metadata
     id="metadata2070">
    <rdf:RDF>
      <cc:Work
         rdf:about="">
        <dc:format>image/svg+xml</dc:format>
        <dc:type
           rdf:resource="http://purl.org/dc/dcmitype/StillImage" />
        <dc:title></dc:title>
      </cc:Work>
    </rdf:RDF>
  </metadata>
  <g
     id="layer1"
     inkscape:groupmode="layer"
     inkscape:label="Layer 1">
    <path
       inkscape:transform-center-y="-1.7267123e-05"
       d="m 499.99997,386.18254 c -6.50868,0 414.91667,285.96126 414.91667,281.54496 0,-4.4163 -421.42535,281.54488 -414.91667,281.54488 6.50867,0 -414.91661,-285.96125 -414.91661,-281.54488 0,4.41622 421.42528,-281.54496 414.91661,-281.54496 z"
       inkscape:transform-center-x="6.0777866e-05"
       style="display:inline;fill:#3a4a26;fill-opacity:1;fill-rule:evenodd;stroke-width:1.16662"
       id="path1733-8" />
    <path
       transform="matrix(5.3527162,0,0,3.6321244,-1669.3088,-110.71093)"
       sodipodi:type="star"
       style="display:inline;fill:#618a30;fill-opacity:1;fill-rule:evenodd;stroke-width:0.264583"
       id="path1733-5-8"
       sodipodi:sides="4"
       sodipodi:cx="405.27252"
       sodipodi:cy="183.56459"
       sodipodi:r1="77.515228"
       sodipodi:r2="54.811546"
       sodipodi:arg1="-1.5707963"
       sodipodi:arg2="-0.78539816"
       inkscape:flatsided="true"
       inkscape:rounded="-0.0110916"
       inkscape:randomized="0"
       d="m 405.27252,106.04936 c -1.21589,0 77.51523,78.73113 77.51523,77.51523 0,-1.21589 -78.73113,77.51523 -77.51523,77.51523 1.2159,0 -77.51523,-78.73113 -77.51523,-77.51523 0,1.21589 78.73113,-77.51523 77.51523,-77.51523 z"
       inkscape:transform-center-x="-2.6044441e-05"
       inkscape:transform-center-y="-5.0045046e-06" />
    <path
       transform="matrix(5.3527162,0,0,3.6321244,-1669.3086,-135.02624)"
       inkscape:transform-center-y="-1.4673038e-05"
       inkscape:transform-center-x="-2.6044442e-05"
       d="m 405.27249,81.017838 c -1.21589,-10e-7 77.51523,78.731122 77.51523,77.515232 0,-1.2159 -78.73113,77.51522 -77.51523,77.51522 1.21589,0 -77.51523,-78.73112 -77.51523,-77.51523 0,1.2159 78.73113,-77.515222 77.51523,-77.515222 z"
       inkscape:randomized="0"
       inkscape:rounded="-0.0110916"
       inkscape:flatsided="true"
       sodipodi:arg2="-0.78539816"
       sodipodi:arg1="-1.5707963"
       sodipodi:r2="54.811546"
       sodipodi:r1="77.515228"
       sodipodi:cy="158.53307"
       sodipodi:cx="405.27249"
       sodipodi:sides="4"
       id="path1733-5-7-1"
       style="display:inline;fill:#72a330;fill-opacity:1;fill-rule:evenodd;stroke-width:0.264583"
       sodipodi:type="star" />
    <path
       transform="matrix(5.3527162,0,0,3.6321244,-1669.3088,-135.02624)"
       sodipodi:type="star"
       style="display:inline;fill:#86c232;fill-opacity:1;fill-rule:evenodd;stroke-width:0.264583"
       id="path1733-5-7-6-0"
       sodipodi:sides="4"
       sodipodi:cx="405.27252"
       sodipodi:cy="127.54163"
       sodipodi:r1="77.515228"
       sodipodi:r2="54.811546"
       sodipodi:arg1="-1.5707963"
       sodipodi:arg2="-0.78539816"
       inkscape:flatsided="true"
       inkscape:rounded="-0.0110916"
       inkscape:randomized="0"
       d="m 405.27252,50.026405 c -1.21589,0 77.51523,78.731125 77.51523,77.515235 0,-1.2159 -78.73113,77.51522 -77.51523,77.51522 1.2159,0 -77.51523,-78.73112 -77.51523,-77.51523 0,1.2159 78.73113,-77.515225 77.51523,-77.515225 z"
       inkscape:transform-center-x="-2.6044441e-05"
       inkscape:transform-center-y="-1.6367697e-05" />
  </g>
</svg>
