<?xml version="1.0" encoding="UTF-8" standalone="no"?>
<svg
   xmlns:dc="http://purl.org/dc/elements/1.1/"
   xmlns:cc="http://creativecommons.org/ns#"
   xmlns:rdf="http://www.w3.org/1999/02/22-rdf-syntax-ns#"
   xmlns:svg="http://www.w3.org/2000/svg"
   xmlns="http://www.w3.org/2000/svg"
   xmlns:sodipodi="http://sodipodi.sourceforge.net/DTD/sodipodi-0.dtd"
   xmlns:inkscape="http://www.inkscape.org/namespaces/inkscape"
   sodipodi:docname="GlenstackHeroSide.svg"
   inkscape:version="1.0 (4035a4f, 2020-05-01)"
   id="svg4428"
   version="1.1"
   viewBox="0 0 210 297"
   height="297mm"
   width="210mm">
  <defs
     id="defs4422" />
  <sodipodi:namedview
     inkscape:window-maximized="0"
     inkscape:window-y="23"
     inkscape:window-x="0"
     inkscape:window-height="943"
     inkscape:window-width="1680"
     showgrid="false"
     inkscape:document-rotation="0"
     inkscape:current-layer="layer1"
     inkscape:document-units="mm"
     inkscape:cy="742.34601"
     inkscape:cx="415.33004"
     inkscape:zoom="0.7337508"
     inkscape:pageshadow="2"
     inkscape:pageopacity="0.0"
     borderopacity="1.0"
     bordercolor="#666666"
     pagecolor="#ffffff"
     id="base" />
  <metadata
     id="metadata4425">
    <rdf:RDF>
      <cc:Work
         rdf:about="">
        <dc:format>image/svg+xml</dc:format>
        <dc:type
           rdf:resource="http://purl.org/dc/dcmitype/StillImage" />
        <dc:title></dc:title>
      </cc:Work>
    </rdf:RDF>
  </metadata>
  <g
     id="layer1"
     inkscape:groupmode="layer"
     inkscape:label="Layer 1">
    <path
       id="path1733"
       style="display:inline;fill:#3a4a26;fill-opacity:1;fill-rule:evenodd;stroke-width:0.217949"
       inkscape:transform-center-x="4.4750794e-06"
       d="m 112.68706,167.07784 c -1.21589,0 77.51523,53.42359 77.51523,52.59853 0,-0.82505 -78.73113,52.59852 -77.51523,52.59852 1.21589,0 -77.515228,-53.42358 -77.515228,-52.59852 0,0.82505 78.731128,-52.59853 77.515228,-52.59853 z"
       inkscape:transform-center-y="-2.0862812e-06" />
    <path
       inkscape:transform-center-y="-2.065623e-06"
       inkscape:transform-center-x="4.4750794e-06"
       d="m 405.27252,106.04936 c -1.21589,0 77.51523,78.73113 77.51523,77.51523 0,-1.21589 -78.73113,77.51523 -77.51523,77.51523 1.2159,0 -77.51523,-78.73113 -77.51523,-77.51523 0,1.21589 78.73113,-77.51523 77.51523,-77.51523 z"
       inkscape:randomized="0"
       inkscape:rounded="-0.0110916"
       inkscape:flatsided="true"
       sodipodi:arg2="-0.78539816"
       sodipodi:arg1="-1.5707963"
       sodipodi:r2="54.811546"
       sodipodi:r1="77.515228"
       sodipodi:cy="183.56459"
       sodipodi:cx="405.27252"
       sodipodi:sides="4"
       id="path1733-5"
       style="display:inline;fill:#618a30;fill-opacity:1;fill-rule:evenodd;stroke-width:0.264583"
       sodipodi:type="star"
       transform="matrix(1,0,0,0.67855724,-294.41942,48.571796)" />
    <path
       sodipodi:type="star"
       style="display:inline;fill:#72a330;fill-opacity:1;fill-rule:evenodd;stroke-width:0.264583"
       id="path1733-5-7"
       sodipodi:sides="4"
       sodipodi:cx="405.27249"
       sodipodi:cy="158.53307"
       sodipodi:r1="77.515228"
       sodipodi:r2="54.811546"
       sodipodi:arg1="-1.5707963"
       sodipodi:arg2="-0.78539816"
       inkscape:flatsided="true"
       inkscape:rounded="-0.0110916"
       inkscape:randomized="0"
       d="m 405.27249,81.017838 c -1.21589,-10e-7 77.51523,78.731122 77.51523,77.515232 0,-1.2159 -78.73113,77.51522 -77.51523,77.51522 1.21589,0 -77.51523,-78.73112 -77.51523,-77.51523 0,1.2159 78.73113,-77.515222 77.51523,-77.515222 z"
       inkscape:transform-center-x="4.4750794e-06"
       inkscape:transform-center-y="-2.0482702e-06"
       transform="matrix(1,0,0,0.67855724,-293.19676,31.80257)" />
    <path
       inkscape:transform-center-y="-2.0267858e-06"
       inkscape:transform-center-x="4.4750794e-06"
       d="m 405.27252,50.026405 c -1.21589,0 77.51523,78.731125 77.51523,77.515235 0,-1.2159 -78.73113,77.51522 -77.51523,77.51522 1.2159,0 -77.51523,-78.73112 -77.51523,-77.51523 0,1.2159 78.73113,-77.515225 77.51523,-77.515225 z"
       inkscape:randomized="0"
       inkscape:rounded="-0.0110916"
       inkscape:flatsided="true"
       sodipodi:arg2="-0.78539816"
       sodipodi:arg1="-1.5707963"
       sodipodi:r2="54.811546"
       sodipodi:r1="77.515228"
       sodipodi:cy="127.54163"
       sodipodi:cx="405.27252"
       sodipodi:sides="4"
       id="path1733-5-7-6"
       style="display:inline;fill:#86c232;fill-opacity:1;fill-rule:evenodd;stroke-width:0.264583"
       sodipodi:type="star"
       transform="matrix(1,0,0,0.67855724,-293.80809,29.357246)" />
    <path
       sodipodi:nodetypes="ccscc"
       d="M 79.443528,145.81827 158.56317,95.390935 139.99483,82.819755 c -0.20211,-0.13683 -77.256202,51.701295 -77.256202,51.701295 z"
       inkscape:transform-center-y="-1.1408366e-06"
       style="fill:#7afdd6;fill-opacity:1;fill-rule:evenodd;stroke-width:0.264583"
       id="path1100-3-1-9" />
    <path
       inkscape:transform-center-x="-72.357423"
       id="path1100-3-1-3-3"
       style="fill:#7afdd6;fill-opacity:0.807843;fill-rule:evenodd;stroke-width:0.264583"
       inkscape:transform-center-y="-51.683878"
       d="m 79.444647,258.86661 -0.0011,-113.04834 -16.67574,-11.27593 c -0.20218,-0.13671 0.356079,112.22692 0.356079,112.22692 z"
       sodipodi:nodetypes="ccscc" />
  </g>
</svg>
