<?xml version="1.0" encoding="UTF-8"?>
<svg width="1e3mm" height="1e3mm" version="1.1" viewBox="0 0 1e3 1e3" xmlns="http://www.w3.org/2000/svg">
<g fill-rule="evenodd">
<path d="m500 386.18c-6.5087 0 414.92 285.96 414.92 281.54s-421.43 281.54-414.92 281.54c6.5087 0-414.92-285.96-414.92-281.54 0 4.4162 421.43-281.54 414.92-281.54z" fill="#305502" stroke-width="1.1666"/>
<path transform="matrix(5.3527 0 0 3.6321 -1669.3 -110.71)" d="m405.27 106.05c-1.2159 0 77.515 78.731 77.515 77.515 0-1.2159-78.731 77.515-77.515 77.515s-77.515-78.731-77.515-77.515c0 1.2159 78.731-77.515 77.515-77.515z" fill="#527b18" stroke-width=".26458"/>
<path transform="matrix(5.3527 0 0 3.6321 -1669.3 -135.03)" d="m405.27 81.018c-1.2159-1e-6 77.515 78.731 77.515 77.515 0-1.2159-78.731 77.515-77.515 77.515 1.2159 0-77.515-78.731-77.515-77.515 0 1.2159 78.731-77.515 77.515-77.515z" fill="#72a330" stroke-width=".26458"/>
<path transform="matrix(5.3527 0 0 3.6321 -1669.3 -135.03)" d="m405.27 50.026c-1.2159 0 77.515 78.731 77.515 77.515 0-1.2159-78.731 77.515-77.515 77.515s-77.515-78.731-77.515-77.515c0 1.2159 78.731-77.515 77.515-77.515z" fill="#86c232" stroke-width=".26458"/>
</g>
</svg>
