<?xml version="1.0" encoding="UTF-8"?>
<svg width="210mm" height="297mm" version="1.1" viewBox="0 0 210 297" xmlns="http://www.w3.org/2000/svg">
<g fill-rule="evenodd">
<path d="m112.93 116.76c0-1.2159-53.424 77.515-52.599 77.515 0.82505 0-52.599-78.731-52.599-77.515 0 1.2159 53.424-77.515 52.599-77.515-0.82505 0 52.599 78.731 52.599 77.515z" fill="#305502" stroke-width=".21795"/>
<path transform="matrix(0 1 -.67856 0 201.87 -289.26)" d="m405.27 106.05c-1.2159 0 77.515 78.731 77.515 77.515 0-1.2159-78.731 77.515-77.515 77.515s-77.515-78.731-77.515-77.515c0 1.2159 78.731-77.515 77.515-77.515z" fill="#527b18" stroke-width=".26458"/>
<path transform="matrix(0 1 -.67856 0 202.78 -288.76)" d="m405.27 81.018c-1.2159-1e-6 77.515 78.731 77.515 77.515 0-1.2159-78.731 77.515-77.515 77.515 1.2159 0-77.515-78.731-77.515-77.515 0 1.2159 78.731-77.515 77.515-77.515z" fill="#72a330" stroke-width=".26458"/>
<path transform="matrix(0 1 -.67856 0 198.01 -289.37)" d="m405.27 50.026c-1.2159 0 77.515 78.731 77.515 77.515 0-1.2159-78.731 77.515-77.515 77.515s-77.515-78.731-77.515-77.515c0 1.2159 78.731-77.515 77.515-77.515z" fill="#86c232" stroke-width=".26458"/>
</g>
</svg>
