<?xml version="1.0" encoding="UTF-8"?>
<svg width="210mm" height="297mm" version="1.1" viewBox="0 0 210 297" xmlns="http://www.w3.org/2000/svg">
<g fill-rule="evenodd">
<path d="m112.69 167.08c-1.2159 0 77.515 53.424 77.515 52.599 0-0.82505-78.731 52.599-77.515 52.599 1.2159 0-77.515-53.424-77.515-52.599 0 0.82505 78.731-52.599 77.515-52.599z" fill="#305502" stroke-width=".21795"/>
<path transform="matrix(1 0 0 .67856 -294.42 48.572)" d="m405.27 106.05c-1.2159 0 77.515 78.731 77.515 77.515 0-1.2159-78.731 77.515-77.515 77.515s-77.515-78.731-77.515-77.515c0 1.2159 78.731-77.515 77.515-77.515z" fill="#527b18" stroke-width=".26458"/>
<path transform="matrix(1 0 0 .67856 -293.2 31.803)" d="m405.27 81.018c-1.2159-1e-6 77.515 78.731 77.515 77.515 0-1.2159-78.731 77.515-77.515 77.515 1.2159 0-77.515-78.731-77.515-77.515 0 1.2159 78.731-77.515 77.515-77.515z" fill="#72a330" stroke-width=".26458"/>
<path transform="matrix(1 0 0 .67856 -293.81 29.357)" d="m405.27 50.026c-1.2159 0 77.515 78.731 77.515 77.515 0-1.2159-78.731 77.515-77.515 77.515s-77.515-78.731-77.515-77.515c0 1.2159 78.731-77.515 77.515-77.515z" fill="#86c232" stroke-width=".26458"/>
<path d="m79.444 145.82 79.12-50.427-18.568-12.571c-0.20211-0.13683-77.256 51.701-77.256 51.701z" fill="#7afdd6" stroke-width=".26458"/>
<path d="m79.445 258.87-0.0011-113.05-16.676-11.276c-0.20218-0.13671 0.35608 112.23 0.35608 112.23z" fill="#7afdd6" fill-opacity=".80784" stroke-width=".26458"/>
</g>
</svg>
